# xmcd
#
# Track frame offsets:
# 150
# 45763
# 76695
# 118743
# 157955
# 200318
#
# Disc length: 3276 seconds
#
#
# Revision: 2
# Processed by: cddbd v1.5.1PL0 Copyright (c) Steve Scherf et al.
# Submitted via: FreeRIP 2.70 
#
DISCID=370cca06
DTITLE=Corciolli - A Tranqüilidade dos Sons da Natureza
DYEAR=2001
DGENRE=New Age
TTITLE0=Passarinhos
TTITLE1=Água
TTITLE2=Floresta
TTITLE3=Mar
TTITLE4=Golfinhos and Baleias
TTITLE5=Chuva
EXTD=YEAR: 2001
EXTT0=
EXTT1=
EXTT2=
EXTT3=
EXTT4=
EXTT5=
PLAYORDER=
